<svg id="visual" viewBox="0 0 900 600" width="900" height="600" xmlns="http://www.w3.org/2000/svg" xmlns:xlink="http://www.w3.org/1999/xlink" version="1.1"><rect x="0" y="0" width="900" height="600" fill="#F9f4e8"></rect><g transform="translate(459.6802372607933 274.27438103626696)"><path d="M160.6 -246.2C208.3 -219.2 247.4 -175 264.9 -124.6C282.4 -74.1 278.3 -17.3 269.2 38C260.1 93.3 246.1 147.2 218 200.6C189.9 254 147.8 306.9 95 321.4C42.3 335.8 -21.1 311.8 -83.7 290.8C-146.3 269.8 -208 251.8 -243.3 210.9C-278.5 170 -287.2 106.3 -292.9 44.2C-298.6 -17.9 -301.2 -78.3 -268.8 -111.7C-236.3 -145.1 -168.9 -151.4 -118.2 -177.1C-67.6 -202.8 -33.8 -247.9 11.3 -265.5C56.4 -283.1 112.8 -273.2 160.6 -246.2" fill="#1f3c5c"></path></g></svg>