<svg id="visual" viewBox="0 0 900 600" width="900" height="600" xmlns="http://www.w3.org/2000/svg" xmlns:xlink="http://www.w3.org/1999/xlink" version="1.1"><rect x="0" y="0" width="900" height="600" fill="#f4ebde"></rect><path d="M0 419L129 387L257 438L386 423L514 382L643 448L771 377L900 442L900 601L771 601L643 601L514 601L386 601L257 601L129 601L0 601Z" fill="#6384a2"></path><path d="M0 421L129 459L257 443L386 395L514 401L643 420L771 432L900 451L900 601L771 601L643 601L514 601L386 601L257 601L129 601L0 601Z" fill="#517190"></path><path d="M0 467L129 474L257 455L386 462L514 473L643 465L771 487L900 490L900 601L771 601L643 601L514 601L386 601L257 601L129 601L0 601Z" fill="#405f7e"></path><path d="M0 492L129 541L257 542L386 483L514 499L643 538L771 516L900 494L900 601L771 601L643 601L514 601L386 601L257 601L129 601L0 601Z" fill="#2f4d6d"></path><path d="M0 539L129 535L257 564L386 544L514 566L643 530L771 537L900 526L900 601L771 601L643 601L514 601L386 601L257 601L129 601L0 601Z" fill="#1f3c5c"></path></svg>