<svg id="visual" viewBox="0 0 900 600" width="900" height="600" xmlns="http://www.w3.org/2000/svg" xmlns:xlink="http://www.w3.org/1999/xlink" version="1.1"><rect x="0" y="0" width="900" height="600" fill="#1f3c5c"></rect><path d="M0 463L25 461.7C50 460.3 100 457.7 150 444.5C200 431.3 250 407.7 300 395.3C350 383 400 382 450 386.3C500 390.7 550 400.3 600 404.3C650 408.3 700 406.7 750 415.5C800 424.3 850 443.7 875 453.3L900 463L900 601L875 601C850 601 800 601 750 601C700 601 650 601 600 601C550 601 500 601 450 601C400 601 350 601 300 601C250 601 200 601 150 601C100 601 50 601 25 601L0 601Z" fill="#314c6f"></path><path d="M0 484L25 484.5C50 485 100 486 150 481.5C200 477 250 467 300 455.2C350 443.3 400 429.7 450 430C500 430.3 550 444.7 600 448.3C650 452 700 445 750 437.2C800 429.3 850 420.7 875 416.3L900 412L900 601L875 601C850 601 800 601 750 601C700 601 650 601 600 601C550 601 500 601 450 601C400 601 350 601 300 601C250 601 200 601 150 601C100 601 50 601 25 601L0 601Z" fill="#415e80"></path><path d="M0 537L25 532.8C50 528.7 100 520.3 150 512.7C200 505 250 498 300 500C350 502 400 513 450 518.3C500 523.7 550 523.3 600 524.3C650 525.3 700 527.7 750 519C800 510.3 850 490.7 875 480.8L900 471L900 601L875 601C850 601 800 601 750 601C700 601 650 601 600 601C550 601 500 601 450 601C400 601 350 601 300 601C250 601 200 601 150 601C100 601 50 601 25 601L0 601Z" fill="#517191"></path><path d="M0 521L25 529C50 537 100 553 150 560.5C200 568 250 567 300 562.8C350 558.7 400 551.3 450 549.3C500 547.3 550 550.7 600 550.2C650 549.7 700 545.3 750 545C800 544.7 850 548.3 875 550.2L900 552L900 601L875 601C850 601 800 601 750 601C700 601 650 601 600 601C550 601 500 601 450 601C400 601 350 601 300 601C250 601 200 601 150 601C100 601 50 601 25 601L0 601Z" fill="#6384a2"></path></svg>