<svg id="visual" viewBox="0 0 900 600" width="900" height="600" xmlns="http://www.w3.org/2000/svg" xmlns:xlink="http://www.w3.org/1999/xlink" version="1.1"><path d="M0 91L82 73L164 85L245 91L327 37L409 37L491 55L573 37L655 73L736 73L818 43L900 61L900 0L818 0L736 0L655 0L573 0L491 0L409 0L327 0L245 0L164 0L82 0L0 0Z" fill="#f4edbe"></path><path d="M0 169L82 175L164 235L245 181L327 163L409 187L491 235L573 121L655 163L736 169L818 127L900 139L900 59L818 41L736 71L655 71L573 35L491 53L409 35L327 35L245 89L164 83L82 71L0 89Z" fill="#c3d3a1"></path><path d="M0 283L82 361L164 439L245 331L327 457L409 355L491 421L573 355L655 349L736 271L818 277L900 331L900 137L818 125L736 167L655 161L573 119L491 233L409 185L327 161L245 179L164 233L82 173L0 167Z" fill="#8fb98c"></path><path d="M0 391L82 409L164 499L245 379L327 505L409 463L491 463L573 469L655 409L736 391L818 361L900 391L900 329L818 275L736 269L655 347L573 353L491 419L409 353L327 455L245 329L164 437L82 359L0 281Z" fill="#599e7d"></path><path d="M0 601L82 601L164 601L245 601L327 601L409 601L491 601L573 601L655 601L736 601L818 601L900 601L900 389L818 359L736 389L655 407L573 467L491 461L409 461L327 503L245 377L164 497L82 407L0 389Z" fill="#038373"></path></svg>