<svg id="visual" viewBox="0 0 900 600" width="900" height="600" xmlns="http://www.w3.org/2000/svg" xmlns:xlink="http://www.w3.org/1999/xlink" version="1.1"><path d="M0 61L7.8 58C15.7 55 31.3 49 47.2 41C63 33 79 23 94.8 24C110.7 25 126.3 37 142 46C157.7 55 173.3 61 189.2 60C205 59 221 51 236.8 48C252.7 45 268.3 47 284.2 43C300 39 316 29 331.8 25C347.7 21 363.3 23 379 31C394.7 39 410.3 53 426.2 54C442 55 458 43 473.8 41C489.7 39 505.3 47 521 44C536.7 41 552.3 27 568.2 28C584 29 600 45 615.8 48C631.7 51 647.3 41 663.2 42C679 43 695 55 710.8 54C726.7 53 742.3 39 758 32C773.7 25 789.3 25 805.2 29C821 33 837 41 852.8 42C868.7 43 884.3 37 892.2 34L900 31L900 0L892.2 0C884.3 0 868.7 0 852.8 0C837 0 821 0 805.2 0C789.3 0 773.7 0 758 0C742.3 0 726.7 0 710.8 0C695 0 679 0 663.2 0C647.3 0 631.7 0 615.8 0C600 0 584 0 568.2 0C552.3 0 536.7 0 521 0C505.3 0 489.7 0 473.8 0C458 0 442 0 426.2 0C410.3 0 394.7 0 379 0C363.3 0 347.7 0 331.8 0C316 0 300 0 284.2 0C268.3 0 252.7 0 236.8 0C221 0 205 0 189.2 0C173.3 0 157.7 0 142 0C126.3 0 110.7 0 94.8 0C79 0 63 0 47.2 0C31.3 0 15.7 0 7.8 0L0 0Z" fill="#94a8be"></path><path d="M0 121L7.8 115C15.7 109 31.3 97 47.2 90C63 83 79 81 94.8 110C110.7 139 126.3 199 142 222C157.7 245 173.3 231 189.2 211C205 191 221 165 236.8 149C252.7 133 268.3 127 284.2 124C300 121 316 121 331.8 117C347.7 113 363.3 105 379 129C394.7 153 410.3 209 426.2 226C442 243 458 221 473.8 199C489.7 177 505.3 155 521 143C536.7 131 552.3 129 568.2 135C584 141 600 155 615.8 174C631.7 193 647.3 217 663.2 234C679 251 695 261 710.8 257C726.7 253 742.3 235 758 223C773.7 211 789.3 205 805.2 208C821 211 837 223 852.8 229C868.7 235 884.3 235 892.2 235L900 235L900 29L892.2 32C884.3 35 868.7 41 852.8 40C837 39 821 31 805.2 27C789.3 23 773.7 23 758 30C742.3 37 726.7 51 710.8 52C695 53 679 41 663.2 40C647.3 39 631.7 49 615.8 46C600 43 584 27 568.2 26C552.3 25 536.7 39 521 42C505.3 45 489.7 37 473.8 39C458 41 442 53 426.2 52C410.3 51 394.7 37 379 29C363.3 21 347.7 19 331.8 23C316 27 300 37 284.2 41C268.3 45 252.7 43 236.8 46C221 49 205 57 189.2 58C173.3 59 157.7 53 142 44C126.3 35 110.7 23 94.8 22C79 21 63 31 47.2 39C31.3 47 15.7 53 7.8 56L0 59Z" fill="#869eb6"></path><path d="M0 181L7.8 170C15.7 159 31.3 137 47.2 133C63 129 79 143 94.8 175C110.7 207 126.3 257 142 276C157.7 295 173.3 283 189.2 265C205 247 221 223 236.8 210C252.7 197 268.3 195 284.2 186C300 177 316 161 331.8 159C347.7 157 363.3 169 379 192C394.7 215 410.3 249 426.2 255C442 261 458 239 473.8 218C489.7 197 505.3 177 521 167C536.7 157 552.3 157 568.2 162C584 167 600 177 615.8 199C631.7 221 647.3 255 663.2 273C679 291 695 293 710.8 290C726.7 287 742.3 279 758 273C773.7 267 789.3 263 805.2 262C821 261 837 263 852.8 269C868.7 275 884.3 285 892.2 290L900 295L900 233L892.2 233C884.3 233 868.7 233 852.8 227C837 221 821 209 805.2 206C789.3 203 773.7 209 758 221C742.3 233 726.7 251 710.8 255C695 259 679 249 663.2 232C647.3 215 631.7 191 615.8 172C600 153 584 139 568.2 133C552.3 127 536.7 129 521 141C505.3 153 489.7 175 473.8 197C458 219 442 241 426.2 224C410.3 207 394.7 151 379 127C363.3 103 347.7 111 331.8 115C316 119 300 119 284.2 122C268.3 125 252.7 131 236.8 147C221 163 205 189 189.2 209C173.3 229 157.7 243 142 220C126.3 197 110.7 137 94.8 108C79 79 63 81 47.2 88C31.3 95 15.7 107 7.8 113L0 119Z" fill="#7893ae"></path><path d="M0 253L7.8 242C15.7 231 31.3 209 47.2 208C63 207 79 227 94.8 267C110.7 307 126.3 367 142 380C157.7 393 173.3 359 189.2 335C205 311 221 297 236.8 289C252.7 281 268.3 279 284.2 274C300 269 316 261 331.8 253C347.7 245 363.3 237 379 254C394.7 271 410.3 313 426.2 317C442 321 458 287 473.8 264C489.7 241 505.3 229 521 227C536.7 225 552.3 233 568.2 235C584 237 600 233 615.8 249C631.7 265 647.3 301 663.2 319C679 337 695 337 710.8 342C726.7 347 742.3 357 758 352C773.7 347 789.3 327 805.2 315C821 303 837 299 852.8 303C868.7 307 884.3 319 892.2 325L900 331L900 293L892.2 288C884.3 283 868.7 273 852.8 267C837 261 821 259 805.2 260C789.3 261 773.7 265 758 271C742.3 277 726.7 285 710.8 288C695 291 679 289 663.2 271C647.3 253 631.7 219 615.8 197C600 175 584 165 568.2 160C552.3 155 536.7 155 521 165C505.3 175 489.7 195 473.8 216C458 237 442 259 426.2 253C410.3 247 394.7 213 379 190C363.3 167 347.7 155 331.8 157C316 159 300 175 284.2 184C268.3 193 252.7 195 236.8 208C221 221 205 245 189.2 263C173.3 281 157.7 293 142 274C126.3 255 110.7 205 94.8 173C79 141 63 127 47.2 131C31.3 135 15.7 157 7.8 168L0 179Z" fill="#6a89a6"></path><path d="M0 271L7.8 271C15.7 271 31.3 271 47.2 281C63 291 79 311 94.8 340C110.7 369 126.3 407 142 411C157.7 415 173.3 385 189.2 364C205 343 221 331 236.8 329C252.7 327 268.3 335 284.2 336C300 337 316 331 331.8 320C347.7 309 363.3 293 379 308C394.7 323 410.3 369 426.2 381C442 393 458 371 473.8 350C489.7 329 505.3 309 521 302C536.7 295 552.3 301 568.2 295C584 289 600 271 615.8 287C631.7 303 647.3 353 663.2 379C679 405 695 407 710.8 416C726.7 425 742.3 441 758 436C773.7 431 789.3 405 805.2 388C821 371 837 363 852.8 369C868.7 375 884.3 395 892.2 405L900 415L900 329L892.2 323C884.3 317 868.7 305 852.8 301C837 297 821 301 805.2 313C789.3 325 773.7 345 758 350C742.3 355 726.7 345 710.8 340C695 335 679 335 663.2 317C647.3 299 631.7 263 615.8 247C600 231 584 235 568.2 233C552.3 231 536.7 223 521 225C505.3 227 489.7 239 473.8 262C458 285 442 319 426.2 315C410.3 311 394.7 269 379 252C363.3 235 347.7 243 331.8 251C316 259 300 267 284.2 272C268.3 277 252.7 279 236.8 287C221 295 205 309 189.2 333C173.3 357 157.7 391 142 378C126.3 365 110.7 305 94.8 265C79 225 63 205 47.2 206C31.3 207 15.7 229 7.8 240L0 251Z" fill="#5f7f9c"></path><path d="M0 307L7.8 309C15.7 311 31.3 315 47.2 330C63 345 79 371 94.8 394C110.7 417 126.3 437 142 440C157.7 443 173.3 429 189.2 413C205 397 221 379 236.8 370C252.7 361 268.3 361 284.2 358C300 355 316 349 331.8 338C347.7 327 363.3 311 379 326C394.7 341 410.3 387 426.2 400C442 413 458 393 473.8 377C489.7 361 505.3 349 521 343C536.7 337 552.3 337 568.2 334C584 331 600 325 615.8 338C631.7 351 647.3 383 663.2 409C679 435 695 455 710.8 471C726.7 487 742.3 499 758 489C773.7 479 789.3 447 805.2 430C821 413 837 411 852.8 420C868.7 429 884.3 449 892.2 459L900 469L900 413L892.2 403C884.3 393 868.7 373 852.8 367C837 361 821 369 805.2 386C789.3 403 773.7 429 758 434C742.3 439 726.7 423 710.8 414C695 405 679 403 663.2 377C647.3 351 631.7 301 615.8 285C600 269 584 287 568.2 293C552.3 299 536.7 293 521 300C505.3 307 489.7 327 473.8 348C458 369 442 391 426.2 379C410.3 367 394.7 321 379 306C363.3 291 347.7 307 331.8 318C316 329 300 335 284.2 334C268.3 333 252.7 325 236.8 327C221 329 205 341 189.2 362C173.3 383 157.7 413 142 409C126.3 405 110.7 367 94.8 338C79 309 63 289 47.2 279C31.3 269 15.7 269 7.8 269L0 269Z" fill="#57758f"></path><path d="M0 451L7.8 436C15.7 421 31.3 391 47.2 396C63 401 79 441 94.8 473C110.7 505 126.3 529 142 535C157.7 541 173.3 529 189.2 517C205 505 221 493 236.8 479C252.7 465 268.3 449 284.2 443C300 437 316 441 331.8 427C347.7 413 363.3 381 379 399C394.7 417 410.3 485 426.2 501C442 517 458 481 473.8 454C489.7 427 505.3 409 521 406C536.7 403 552.3 415 568.2 424C584 433 600 439 615.8 460C631.7 481 647.3 517 663.2 535C679 553 695 553 710.8 552C726.7 551 742.3 549 758 542C773.7 535 789.3 523 805.2 508C821 493 837 475 852.8 477C868.7 479 884.3 501 892.2 512L900 523L900 467L892.2 457C884.3 447 868.7 427 852.8 418C837 409 821 411 805.2 428C789.3 445 773.7 477 758 487C742.3 497 726.7 485 710.8 469C695 453 679 433 663.2 407C647.3 381 631.7 349 615.8 336C600 323 584 329 568.2 332C552.3 335 536.7 335 521 341C505.3 347 489.7 359 473.8 375C458 391 442 411 426.2 398C410.3 385 394.7 339 379 324C363.3 309 347.7 325 331.8 336C316 347 300 353 284.2 356C268.3 359 252.7 359 236.8 368C221 377 205 395 189.2 411C173.3 427 157.7 441 142 438C126.3 435 110.7 415 94.8 392C79 369 63 343 47.2 328C31.3 313 15.7 309 7.8 307L0 305Z" fill="#506b83"></path><path d="M0 601L7.8 601C15.7 601 31.3 601 47.2 601C63 601 79 601 94.8 601C110.7 601 126.3 601 142 601C157.7 601 173.3 601 189.2 601C205 601 221 601 236.8 601C252.7 601 268.3 601 284.2 601C300 601 316 601 331.8 601C347.7 601 363.3 601 379 601C394.7 601 410.3 601 426.2 601C442 601 458 601 473.8 601C489.7 601 505.3 601 521 601C536.7 601 552.3 601 568.2 601C584 601 600 601 615.8 601C631.7 601 647.3 601 663.2 601C679 601 695 601 710.8 601C726.7 601 742.3 601 758 601C773.7 601 789.3 601 805.2 601C821 601 837 601 852.8 601C868.7 601 884.3 601 892.2 601L900 601L900 521L892.2 510C884.3 499 868.7 477 852.8 475C837 473 821 491 805.2 506C789.3 521 773.7 533 758 540C742.3 547 726.7 549 710.8 550C695 551 679 551 663.2 533C647.3 515 631.7 479 615.8 458C600 437 584 431 568.2 422C552.3 413 536.7 401 521 404C505.3 407 489.7 425 473.8 452C458 479 442 515 426.2 499C410.3 483 394.7 415 379 397C363.3 379 347.7 411 331.8 425C316 439 300 435 284.2 441C268.3 447 252.7 463 236.8 477C221 491 205 503 189.2 515C173.3 527 157.7 539 142 533C126.3 527 110.7 503 94.8 471C79 439 63 399 47.2 394C31.3 389 15.7 419 7.8 434L0 449Z" fill="#486177"></path></svg>